<svg height="512pt" viewBox="0 0 512 512" width="512pt" xmlns="http://www.w3.org/2000/svg"><path d="m165 90.394531c-8.289062 0-15-6.3125-15-14.601562 0-25.605469-20.1875-45.792969-45-45.792969-8.289062 0-15-6.710938-15-15s6.710938-15 15-15c41.351562 0 75 33.648438 75 75 0 8.289062-6.710938 15.394531-15 15.394531zm0 0" fill="#725d57"/><path d="m354.300781 218.597656c-21.898437-93.597656-91.800781-154.496094-174.300781-155.699218-12.898438 0-25.800781 1.203124-39 3.902343-81.601562 21.300781-141 107.398438-141 205.199219 0 42.898438 11.101562 83.398438 30.601562 117.300781 19.5 33.898438 47.398438 60.898438 81.597657 77.097657 3.902343 1.800781 7.800781 3.601562 11.699219 5.097656 18.601562 6.902344 32.699218 17.703125 42.003906 31.203125l1.5 2.699219c2.996094 4.199218 7.5 6.601562 12.597656 6.601562s9.601562-2.402344 12.597656-6.601562l1.5-2.699219c9.304688-13.5 23.402344-24.300781 42.003906-31.203125 90.296876-34.496094 141.300782-143.097656 118.199219-252.898438zm0 0" fill="#b9df47"/><path d="m236.101562 471.5c-18.601562 6.898438-32.699218 17.699219-42.003906 31.199219l-1.5 2.699219c-2.996094 4.199218-7.5 6.601562-12.597656 6.601562v-449.101562c82.5 1.203124 152.402344 62.101562 174.300781 155.699218 23.101563 109.800782-27.902343 218.402344-118.199219 252.902344zm0 0" fill="#96cc29"/><path d="m362 212c-82.800781 0-150 67.199219-150 150s67.199219 150 150 150 150-67.199219 150-150-67.199219-150-150-150zm0 0" fill="#b9df47"/><path d="m512 362c0 82.800781-67.199219 150-150 150v-300c82.800781 0 150 67.199219 150 150zm0 0" fill="#96cc29"/><path d="m437 362c0 41.398438-33.601562 75-75 75s-75-33.601562-75-75 33.601562-75 75-75 75 33.601562 75 75zm0 0" fill="#b9df47"/><path d="m435 362c0 41.398438-33.601562 75-75 75v-150c41.398438 0 75 33.601562 75 75zm0 0" fill="#96cc29"/><path d="m195 32h-30c-8.402344 0-15 6.597656-15 15 0 32.101562 11.101562 61.5 30 84.601562 24.601562 30.597657 62.699219 50.398438 105 50.398438h30c8.402344 0 15-6.601562 15-15 0-74.402344-60.601562-135-135-135zm0 0" fill="#5bc980"/><path d="m330 167c0 8.398438-6.597656 15-15 15h-30c-42.300781 0-80.398438-19.800781-105-50.398438v-99.601562h15c74.398438 0 135 60.597656 135 135zm0 0" fill="#00ab5e"/><path d="m362 272c-50.398438 0-90 42-90 90 0 15.597656 4.199219 30 11.398438 42.898438 8.402343 22.203124 42.300781 47.101562 78.601562 47.101562 50.699219 0 90-42.601562 90-90 0-48-39.601562-90-90-90zm-60 90c0-5.398438.902344-10.800781 2.402344-15.902344l27.597656 15.902344-27.597656 15.898438c-1.5-5.097657-2.402344-10.5-2.402344-15.898438zm45 57.898438c-10.800781-2.699219-20.097656-8.398438-27.597656-15.898438l27.597656-15.898438zm0-84-27.597656-15.898438c7.5-7.5 16.796875-13.199219 27.597656-15.898438zm30-31.796876c10.800781 2.699219 20.097656 8.398438 27.597656 15.898438l-27.597656 15.898438zm0 115.796876v-31.796876l27.597656 15.898438c-7.5 7.5-16.796875 13.199219-27.597656 15.898438zm42.597656-42-27.597656-15.898438 27.597656-15.902344c1.5 5.101563 2.402344 10.503906 2.402344 15.902344s-.902344 10.800781-2.402344 15.898438zm0 0" fill="#daf569"/><path d="m362 272v180c50.699219 0 90-42.601562 90-90 0-48-39.601562-90-90-90zm15 32.101562c10.800781 2.699219 20.097656 8.398438 27.597656 15.898438l-27.597656 15.898438zm0 115.796876v-31.796876l27.597656 15.898438c-7.5 7.5-16.796875 13.199219-27.597656 15.898438zm42.597656-42-27.597656-15.898438 27.597656-15.902344c1.5 5.101563 2.402344 10.503906 2.402344 15.902344s-.902344 10.800781-2.402344 15.898438zm0 0" fill="#b9df47"/></svg>